<svg width="25" height="22" viewBox="0 0 25 22" fill="none" xmlns="http://www.w3.org/2000/svg">
<path d="M22.0272 8.69387H23.3565C23.709 8.69387 24.0472 8.80821 24.2965 9.01174C24.5457 9.21527 24.6858 9.49132 24.6858 9.77916V20.632C24.6858 20.9198 24.5457 21.1959 24.2965 21.3994C24.0472 21.6029 23.709 21.7173 23.3565 21.7173H2.08761C1.73505 21.7173 1.39694 21.6029 1.14765 21.3994C0.898352 21.1959 0.758301 20.9198 0.758301 20.632L0.758301 9.77916C0.758301 9.49132 0.898352 9.21527 1.14765 9.01174C1.39694 8.80821 1.73505 8.69387 2.08761 8.69387H3.41691V7.60859C3.41691 6.61094 3.6576 5.62305 4.12522 4.70134C4.59285 3.77964 5.27826 2.94215 6.14232 2.2367C7.00638 1.53126 8.03218 0.971668 9.16113 0.589883C10.2901 0.208099 11.5001 0.0115967 12.722 0.0115967C13.944 0.0115967 15.154 0.208099 16.283 0.589883C17.4119 0.971668 18.4377 1.53126 19.3018 2.2367C20.1658 2.94215 20.8512 3.77964 21.3189 4.70134C21.7865 5.62305 22.0272 6.61094 22.0272 7.60859V8.69387ZM3.41691 10.8644L3.41691 19.5467H22.0272V10.8644L3.41691 10.8644ZM11.3927 13.035H14.0514L14.0514 17.3761H11.3927L11.3927 13.035ZM19.3686 8.69387V7.60859C19.3686 6.16941 18.6683 4.78918 17.4219 3.77153C16.1754 2.75388 14.4848 2.18217 12.722 2.18217C10.9593 2.18217 9.26871 2.75388 8.02224 3.77153C6.77578 4.78918 6.07552 6.16941 6.07552 7.60859L6.07552 8.69387L19.3686 8.69387Z" fill="white"/>
</svg>
