<svg width="25" height="25" viewBox="0 0 25 25" fill="none" xmlns="http://www.w3.org/2000/svg">
<g clip-path="url(#clip0_302_95)">
<g clip-path="url(#clip1_302_95)">
<path d="M25.1054 17.4938C23.4992 15.5022 21.0238 14.0742 18.1351 13.3972C19.564 12.7871 20.6742 11.8575 21.2951 10.7512C21.9161 9.6448 22.0135 8.42284 21.5723 7.27293C21.1312 6.12303 20.176 5.10876 18.8533 4.3859C17.5306 3.66304 15.9136 3.27155 14.2507 3.27155C12.5878 3.27155 10.9708 3.66304 9.64812 4.3859C8.32545 5.10876 7.3702 6.12303 6.92908 7.27293C6.48795 8.42284 6.58535 9.6448 7.2063 10.7512C7.82725 11.8575 8.93742 12.7871 10.3663 13.3972C7.47757 14.0734 5.00225 15.5015 3.39597 17.4938C3.33707 17.5627 3.298 17.6394 3.28107 17.7192C3.26413 17.7991 3.26968 17.8806 3.29739 17.959C3.32509 18.0373 3.37439 18.1108 3.44237 18.1753C3.51035 18.2397 3.59564 18.2937 3.69321 18.3342C3.79077 18.3746 3.89864 18.4006 4.01044 18.4106C4.12224 18.4206 4.23571 18.4145 4.34415 18.3926C4.4526 18.3707 4.55382 18.3334 4.64185 18.283C4.72988 18.2325 4.80293 18.17 4.8567 18.0989C6.84371 15.6361 10.3558 14.1657 14.2507 14.1657C18.1456 14.1657 21.6577 15.6361 23.6447 18.0989C23.6985 18.17 23.7715 18.2325 23.8596 18.283C23.9476 18.3334 24.0488 18.3707 24.1573 18.3926C24.2657 18.4145 24.3792 18.4206 24.491 18.4106C24.6028 18.4006 24.7106 18.3746 24.8082 18.3342C24.9058 18.2937 24.9911 18.2397 25.059 18.1753C25.127 18.1108 25.1763 18.0373 25.204 17.959C25.2317 17.8806 25.2373 17.7991 25.2203 17.7192C25.2034 17.6394 25.1643 17.5627 25.1054 17.4938ZM8.34452 8.71965C8.34452 7.88188 8.69091 7.06293 9.33989 6.36636C9.98887 5.66978 10.9113 5.12686 11.9905 4.80627C13.0697 4.48567 14.2573 4.40178 15.4029 4.56522C16.5486 4.72866 17.601 5.13209 18.427 5.72447C19.253 6.31686 19.8155 7.07161 20.0434 7.89328C20.2713 8.71495 20.1543 9.56663 19.7073 10.3406C19.2603 11.1146 18.5033 11.7762 17.532 12.2416C16.5607 12.707 15.4188 12.9555 14.2507 12.9555C12.6848 12.9543 11.1835 12.5076 10.0762 11.7135C8.96899 10.9194 8.34619 9.84268 8.34452 8.71965Z" fill="white"/>
</g>
</g>
<defs>
<clipPath id="clip0_302_95">
<rect width="24.2334" height="24.2334" fill="white" transform="translate(0.773926 0.457214)"/>
</clipPath>
<clipPath id="clip1_302_95">
<rect width="24.23" height="24.23" fill="white" transform="translate(1 1)"/>
</clipPath>
</defs>
</svg>
